<svg width="199" height="62" viewBox="0 0 199 62" fill="none" xmlns="http://www.w3.org/2000/svg">
<mask id="path-1-inside-1" fill="white">
<path fill-rule="evenodd" clip-rule="evenodd" d="M199 9C199 4.02944 194.971 0 190 0H9C4.02944 0 0 4.02944 0 9V42.0826C0 47.0532 4.02945 51.0826 9.00001 51.0826H79.6109C81.2955 51.0826 82.9462 51.5554 84.3754 52.4472L97.1269 60.404C100.043 62.2234 103.74 62.2234 106.656 60.404L119.407 52.4472C120.836 51.5554 122.487 51.0826 124.172 51.0826H190C194.971 51.0826 199 47.0532 199 42.0826V9Z"/>
</mask>
<path fill-rule="evenodd" clip-rule="evenodd" d="M199 9C199 4.02944 194.971 0 190 0H9C4.02944 0 0 4.02944 0 9V42.0826C0 47.0532 4.02945 51.0826 9.00001 51.0826H79.6109C81.2955 51.0826 82.9462 51.5554 84.3754 52.4472L97.1269 60.404C100.043 62.2234 103.74 62.2234 106.656 60.404L119.407 52.4472C120.836 51.5554 122.487 51.0826 124.172 51.0826H190C194.971 51.0826 199 47.0532 199 42.0826V9Z" fill="white"/>
<path d="M119.407 52.4472L120.466 54.144L119.407 52.4472ZM97.1269 60.404L96.0681 62.1008L97.1269 60.404ZM106.656 60.404L107.715 62.1008L106.656 60.404ZM84.3754 52.4472L83.3166 54.144L84.3754 52.4472ZM9 2H190V-2H9V2ZM2 42.0826V9H-2V42.0826H2ZM79.6109 49.0826H9.00001V53.0826H79.6109V49.0826ZM98.1856 58.7072L85.4342 50.7504L83.3166 54.144L96.0681 62.1008L98.1856 58.7072ZM118.348 50.7504L105.597 58.7072L107.715 62.1008L120.466 54.144L118.348 50.7504ZM190 49.0826H124.172V53.0826H190V49.0826ZM197 9V42.0826H201V9H197ZM190 53.0826C196.075 53.0826 201 48.1578 201 42.0826H197C197 45.9486 193.866 49.0826 190 49.0826V53.0826ZM120.466 54.144C121.578 53.4504 122.861 53.0826 124.172 53.0826V49.0826C122.113 49.0826 120.095 49.6605 118.348 50.7504L120.466 54.144ZM96.0681 62.1008C99.6318 64.3245 104.151 64.3245 107.715 62.1008L105.597 58.7072C103.329 60.1223 100.453 60.1223 98.1856 58.7072L96.0681 62.1008ZM79.6109 53.0826C80.9212 53.0826 82.2051 53.4504 83.3166 54.144L85.4342 50.7504C83.6874 49.6605 81.6698 49.0826 79.6109 49.0826V53.0826ZM-2 42.0826C-2 48.1578 2.92488 53.0826 9.00001 53.0826V49.0826C5.13401 49.0826 2 45.9486 2 42.0826H-2ZM190 2C193.866 2 197 5.13401 197 9H201C201 2.92487 196.075 -2 190 -2V2ZM9 -2C2.92487 -2 -2 2.92487 -2 9H2C2 5.13401 5.13401 2 9 2V-2Z" fill="#3B82F6" mask="url(#path-1-inside-1)"/>
</svg>
