<svg width="45" height="14" viewBox="0 0 45 14" fill="none" xmlns="http://www.w3.org/2000/svg">
<path d="M0 2.99147H0.708939C2.46888 2.99147 4.1902 3.50748 5.65991 4.47564L17.7494 12.4394C20.7534 14.4183 24.6473 14.4183 27.6513 12.4394L39.7408 4.47564C41.2105 3.50748 42.9319 2.99147 44.6918 2.99147H45V0H0V2.99147Z" fill="white"/>
<path d="M45 0H44.2394C42.0512 0.0825256 39.924 0.762554 38.0905 1.97036L26.001 9.93417C23.9983 11.2534 21.4024 11.2534 19.3997 9.93417L7.31023 1.97036C5.47672 0.762554 3.34953 0.0825256 1.16127 0H0V2.99147H0.708931C2.46887 2.99147 4.19019 3.50748 5.6599 4.47564L17.7494 12.4394C20.7534 14.4183 24.6473 14.4183 27.6513 12.4394L39.7408 4.47564C41.2105 3.50748 42.9318 2.99147 44.6918 2.99147H45V0Z" fill="#3B82F6"/>
</svg>
