<svg fill="none" xmlns="http://www.w3.org/2000/svg">
<path d="M21.8662 22.1673C25.351 22.1673 28.0274 23.0036 29.8953 24.6764C31.7631 26.3212 32.6971 28.8164 32.6971 32.1618V45H26.5916V42.1982C25.365 44.2891 23.0789 45.3345 19.7334 45.3345C18.005 45.3345 16.4995 45.0418 15.2171 44.4564C13.9625 43.8709 13.0007 43.0624 12.3316 42.0309C11.6625 40.9994 11.328 39.8285 11.328 38.5182C11.328 36.4273 12.1086 34.7824 13.6698 33.5836C15.2589 32.3848 17.6983 31.7855 20.988 31.7855H26.1734C26.1734 30.3636 25.7413 29.2764 24.8771 28.5236C24.0128 27.743 22.7165 27.3527 20.988 27.3527C19.7892 27.3527 18.6043 27.5479 17.4334 27.9382C16.2904 28.3006 15.3146 28.8024 14.5062 29.4436L12.1643 24.8855C13.391 24.0212 14.8546 23.3521 16.5553 22.8782C18.2837 22.4042 20.054 22.1673 21.8662 22.1673ZM21.3643 40.9436C22.4795 40.9436 23.4692 40.6927 24.3334 40.1909C25.1977 39.6612 25.811 38.8945 26.1734 37.8909V35.5909H21.6989C19.0225 35.5909 17.6843 36.4691 17.6843 38.2255C17.6843 39.0618 18.005 39.7309 18.6462 40.2327C19.3153 40.7067 20.2213 40.9436 21.3643 40.9436ZM60.8845 33.8345C60.8845 33.9182 60.8427 34.5036 60.759 35.5909H43.739C44.0457 36.9848 44.7705 38.0861 45.9136 38.8945C47.0566 39.703 48.4784 40.1073 50.179 40.1073C51.3499 40.1073 52.3815 39.94 53.2736 39.6055C54.1936 39.243 55.0439 38.6855 55.8245 37.9327L59.2954 41.6964C57.1766 44.1218 54.0821 45.3345 50.0118 45.3345C47.4748 45.3345 45.2305 44.8467 43.279 43.8709C41.3275 42.8673 39.8221 41.4873 38.7627 39.7309C37.7033 37.9745 37.1736 35.9812 37.1736 33.7509C37.1736 31.5485 37.6893 29.5691 38.7209 27.8127C39.7802 26.0285 41.216 24.6485 43.0281 23.6727C44.8681 22.6691 46.9172 22.1673 49.1754 22.1673C51.3778 22.1673 53.3712 22.6412 55.1554 23.5891C56.9396 24.537 58.3336 25.903 59.3372 27.6873C60.3687 29.4436 60.8845 31.4927 60.8845 33.8345ZM49.2172 27.1018C47.7396 27.1018 46.499 27.52 45.4954 28.3564C44.4918 29.1927 43.8784 30.3358 43.6554 31.7855H54.7372C54.5142 30.3636 53.9009 29.2345 52.8972 28.3982C51.8936 27.5339 50.6669 27.1018 49.2172 27.1018ZM71.4586 25.4709C72.2392 24.3836 73.2847 23.5612 74.595 23.0036C75.9332 22.4461 77.4665 22.1673 79.195 22.1673V28.1891C78.4701 28.1333 77.9822 28.1055 77.7313 28.1055C75.8635 28.1055 74.3998 28.6351 73.3404 29.6945C72.281 30.7261 71.7513 32.2873 71.7513 34.3782V45H65.2277V22.5018H71.4586V25.4709ZM93.5752 45.3345C91.2055 45.3345 89.0728 44.8467 87.177 43.8709C85.3091 42.8673 83.8455 41.4873 82.7861 39.7309C81.7267 37.9745 81.197 35.9812 81.197 33.7509C81.197 31.5206 81.7267 29.5273 82.7861 27.7709C83.8455 26.0145 85.3091 24.6485 87.177 23.6727C89.0728 22.6691 91.2055 22.1673 93.5752 22.1673C95.9449 22.1673 98.0637 22.6691 99.9316 23.6727C101.799 24.6485 103.263 26.0145 104.322 27.7709C105.382 29.5273 105.912 31.5206 105.912 33.7509C105.912 35.9812 105.382 37.9745 104.322 39.7309C103.263 41.4873 101.799 42.8673 99.9316 43.8709C98.0637 44.8467 95.9449 45.3345 93.5752 45.3345ZM93.5752 39.9818C95.2479 39.9818 96.614 39.4242 97.6734 38.3091C98.7607 37.1661 99.3043 35.6467 99.3043 33.7509C99.3043 31.8552 98.7607 30.3497 97.6734 29.2345C96.614 28.0915 95.2479 27.52 93.5752 27.52C91.9025 27.52 90.5225 28.0915 89.4352 29.2345C88.3479 30.3497 87.8043 31.8552 87.8043 33.7509C87.8043 35.6467 88.3479 37.1661 89.4352 38.3091C90.5225 39.4242 91.9025 39.9818 93.5752 39.9818ZM117.841 45.3345C115.973 45.3345 114.147 45.1115 112.363 44.6655C110.579 44.1915 109.157 43.6061 108.098 42.9091L110.272 38.2255C111.276 38.8667 112.488 39.3964 113.91 39.8145C115.332 40.2048 116.726 40.4 118.092 40.4C120.852 40.4 122.232 39.717 122.232 38.3509C122.232 37.7097 121.856 37.2497 121.103 36.9709C120.35 36.6921 119.193 36.4552 117.632 36.26C115.792 35.9812 114.273 35.6606 113.074 35.2982C111.875 34.9358 110.83 34.2945 109.938 33.3745C109.073 32.4545 108.641 31.1442 108.641 29.4436C108.641 28.0218 109.045 26.7673 109.854 25.68C110.69 24.5648 111.889 23.7006 113.45 23.0873C115.039 22.4739 116.907 22.1673 119.054 22.1673C120.643 22.1673 122.218 22.3485 123.779 22.7109C125.368 23.0455 126.679 23.5194 127.71 24.1327L125.536 28.7745C123.556 27.6594 121.396 27.1018 119.054 27.1018C117.66 27.1018 116.615 27.297 115.918 27.6873C115.221 28.0776 114.872 28.5794 114.872 29.1927C114.872 29.8897 115.248 30.3776 116.001 30.6564C116.754 30.9352 117.953 31.2 119.598 31.4509C121.438 31.7576 122.943 32.0921 124.114 32.4545C125.285 32.7891 126.302 33.4164 127.167 34.3364C128.031 35.2564 128.463 36.5388 128.463 38.1836C128.463 39.5776 128.045 40.8182 127.208 41.9055C126.372 42.9927 125.145 43.843 123.528 44.4564C121.939 45.0418 120.044 45.3345 117.841 45.3345ZM143.193 45.3345C140.824 45.3345 138.691 44.8467 136.795 43.8709C134.927 42.8673 133.464 41.4873 132.404 39.7309C131.345 37.9745 130.815 35.9812 130.815 33.7509C130.815 31.5206 131.345 29.5273 132.404 27.7709C133.464 26.0145 134.927 24.6485 136.795 23.6727C138.691 22.6691 140.824 22.1673 143.193 22.1673C145.563 22.1673 147.682 22.6691 149.55 23.6727C151.418 24.6485 152.881 26.0145 153.941 27.7709C155 29.5273 155.53 31.5206 155.53 33.7509C155.53 35.9812 155 37.9745 153.941 39.7309C152.881 41.4873 151.418 42.8673 149.55 43.8709C147.682 44.8467 145.563 45.3345 143.193 45.3345ZM143.193 39.9818C144.866 39.9818 146.232 39.4242 147.292 38.3091C148.379 37.1661 148.923 35.6467 148.923 33.7509C148.923 31.8552 148.379 30.3497 147.292 29.2345C146.232 28.0915 144.866 27.52 143.193 27.52C141.521 27.52 140.141 28.0915 139.053 29.2345C137.966 30.3497 137.423 31.8552 137.423 33.7509C137.423 35.6467 137.966 37.1661 139.053 38.3091C140.141 39.4242 141.521 39.9818 143.193 39.9818ZM159.89 13.9709H166.414V45H159.89V13.9709ZM194.799 22.5018L185.307 45H178.574L169.123 22.5018H175.856L182.087 37.8073L188.527 22.5018H194.799ZM218.887 33.8345C218.887 33.9182 218.845 34.5036 218.762 35.5909H201.742C202.048 36.9848 202.773 38.0861 203.916 38.8945C205.059 39.703 206.481 40.1073 208.182 40.1073C209.352 40.1073 210.384 39.94 211.276 39.6055C212.196 39.243 213.046 38.6855 213.827 37.9327L217.298 41.6964C215.179 44.1218 212.085 45.3345 208.014 45.3345C205.477 45.3345 203.233 44.8467 201.282 43.8709C199.33 42.8673 197.825 41.4873 196.765 39.7309C195.706 37.9745 195.176 35.9812 195.176 33.7509C195.176 31.5485 195.692 29.5691 196.723 27.8127C197.783 26.0285 199.218 24.6485 201.031 23.6727C202.871 22.6691 204.92 22.1673 207.178 22.1673C209.38 22.1673 211.374 22.6412 213.158 23.5891C214.942 24.537 216.336 25.903 217.34 27.6873C218.371 29.4436 218.887 31.4927 218.887 33.8345ZM207.22 27.1018C205.742 27.1018 204.502 27.52 203.498 28.3564C202.494 29.1927 201.881 30.3358 201.658 31.7855H212.74C212.517 30.3636 211.903 29.2345 210.9 28.3982C209.896 27.5339 208.669 27.1018 207.22 27.1018Z" fill="#1D4ED8"/>
<rect y="54.0156" width="230" height="29.6212" fill="#3B82F6"/>
<path d="M60.1131 64.8586C61.1864 64.8586 62.1483 65.0955 62.9986 65.5695C63.8489 66.0434 64.511 66.7055 64.9849 67.5558C65.4728 68.4061 65.7167 69.3889 65.7167 70.504C65.7167 71.6192 65.4728 72.6089 64.9849 73.4731C64.511 74.3234 63.8489 74.9855 62.9986 75.4595C62.1483 75.9334 61.1864 76.1704 60.1131 76.1704C59.2907 76.1704 58.538 76.0101 57.8549 75.6895C57.1719 75.3689 56.6073 74.9019 56.1613 74.2886V76.0449H54.2377V60.5304H56.2449V66.6358C56.691 66.0504 57.2486 65.6113 57.9177 65.3186C58.5867 65.0119 59.3186 64.8586 60.1131 64.8586ZM59.9458 74.414C60.6567 74.414 61.291 74.2537 61.8486 73.9331C62.4201 73.5986 62.8661 73.1386 63.1867 72.5531C63.5213 71.9537 63.6886 71.2707 63.6886 70.504C63.6886 69.7373 63.5213 69.0613 63.1867 68.4758C62.8661 67.8764 62.4201 67.4164 61.8486 67.0958C61.291 66.7752 60.6567 66.6149 59.9458 66.6149C59.2489 66.6149 58.6146 66.7752 58.0431 67.0958C57.4716 67.4164 57.0255 67.8764 56.7049 68.4758C56.3843 69.0613 56.224 69.7373 56.224 70.504C56.224 71.2707 56.3843 71.9537 56.7049 72.5531C57.0255 73.1386 57.4716 73.5986 58.0431 73.9331C58.6146 74.2537 59.2489 74.414 59.9458 74.414ZM77.9902 64.9631L72.6166 77.1531C72.1426 78.2822 71.5851 79.0767 70.9439 79.5367C70.3166 79.9967 69.5569 80.2267 68.6648 80.2267C68.1211 80.2267 67.5914 80.1361 67.0757 79.9549C66.5739 79.7876 66.1557 79.5367 65.8211 79.2022L66.6784 77.6967C67.2499 78.2404 67.912 78.5122 68.6648 78.5122C69.1526 78.5122 69.5569 78.3798 69.8775 78.1149C70.212 77.864 70.5117 77.4249 70.7766 76.7976L71.132 76.024L66.2393 64.9631H68.3302L72.1984 73.8286L76.0248 64.9631H77.9902Z" fill="#DBEAFE"/>
<path d="M98.9369 76.0449L98.916 67.2631L94.6087 74.4976H93.0823L88.796 67.4513V76.0449H85.6178V61.4086H88.4196L93.8978 70.504L99.2923 61.4086H102.073L102.115 76.0449H98.9369ZM109.895 64.6286C111.637 64.6286 112.975 65.0467 113.909 65.8831C114.843 66.7055 115.31 67.9531 115.31 69.6258V76.0449H112.258V74.644C111.644 75.6895 110.501 76.2122 108.829 76.2122C107.964 76.2122 107.212 76.0658 106.57 75.7731C105.943 75.4804 105.462 75.0761 105.128 74.5604C104.793 74.0446 104.626 73.4592 104.626 72.804C104.626 71.7586 105.016 70.9361 105.797 70.3367C106.591 69.7373 107.811 69.4376 109.456 69.4376H112.049C112.049 68.7267 111.832 68.1831 111.4 67.8067C110.968 67.4164 110.32 67.2213 109.456 67.2213C108.856 67.2213 108.264 67.3189 107.679 67.514C107.107 67.6952 106.619 67.9461 106.215 68.2667L105.044 65.9876C105.657 65.5555 106.389 65.221 107.239 64.984C108.104 64.747 108.989 64.6286 109.895 64.6286ZM109.644 74.0167C110.202 74.0167 110.696 73.8913 111.129 73.6404C111.561 73.3755 111.867 72.9922 112.049 72.4904V71.3404H109.811C108.473 71.3404 107.804 71.7795 107.804 72.6576C107.804 73.0758 107.964 73.4104 108.285 73.6613C108.619 73.8983 109.072 74.0167 109.644 74.0167ZM123.092 71.6331L121.524 73.1804V76.0449H118.262V60.5304H121.524V69.3122L126.292 64.7958H130.181L125.497 69.5631L130.599 76.0449H126.647L123.092 71.6331ZM142.595 70.4622C142.595 70.504 142.574 70.7967 142.532 71.3404H134.022C134.175 72.0373 134.538 72.588 135.109 72.9922C135.681 73.3964 136.392 73.5986 137.242 73.5986C137.827 73.5986 138.343 73.5149 138.789 73.3476C139.249 73.1664 139.674 72.8876 140.065 72.5113L141.8 74.3931C140.741 75.6058 139.194 76.2122 137.158 76.2122C135.89 76.2122 134.768 75.9683 133.792 75.4804C132.816 74.9786 132.064 74.2886 131.534 73.4104C131.004 72.5322 130.739 71.5355 130.739 70.4204C130.739 69.3192 130.997 68.3295 131.513 67.4513C132.043 66.5592 132.76 65.8692 133.667 65.3813C134.587 64.8795 135.611 64.6286 136.74 64.6286C137.841 64.6286 138.838 64.8655 139.73 65.3395C140.622 65.8134 141.319 66.4964 141.821 67.3886C142.337 68.2667 142.595 69.2913 142.595 70.4622ZM136.761 67.0958C136.022 67.0958 135.402 67.3049 134.9 67.7231C134.398 68.1413 134.092 68.7128 133.98 69.4376H139.521C139.41 68.7267 139.103 68.1622 138.601 67.744C138.099 67.3119 137.486 67.0958 136.761 67.0958ZM157.479 72.9713H155.095V76.0449H151.792V72.9713H143.909V70.6922L150.809 61.4086H154.364L147.965 70.2113H151.896V67.4722H155.095V70.2113H157.479V72.9713ZM166.621 76.2958C165.129 76.2958 163.777 75.9752 162.565 75.334C161.366 74.6789 160.418 73.7798 159.721 72.6367C159.038 71.4798 158.696 70.1764 158.696 68.7267C158.696 67.277 159.038 65.9807 159.721 64.8376C160.418 63.6807 161.366 62.7816 162.565 62.1404C163.777 61.4852 165.136 61.1576 166.642 61.1576C167.91 61.1576 169.053 61.3807 170.071 61.8267C171.102 62.2728 171.967 62.914 172.664 63.7504L170.489 65.7576C169.499 64.6146 168.273 64.0431 166.809 64.0431C165.903 64.0431 165.095 64.2452 164.384 64.6495C163.673 65.0398 163.115 65.5904 162.711 66.3013C162.321 67.0122 162.125 67.8207 162.125 68.7267C162.125 69.6328 162.321 70.4413 162.711 71.1522C163.115 71.8631 163.673 72.4207 164.384 72.8249C165.095 73.2152 165.903 73.4104 166.809 73.4104C168.273 73.4104 169.499 72.8319 170.489 71.6749L172.664 73.6822C171.967 74.5325 171.102 75.1807 170.071 75.6267C169.039 76.0728 167.889 76.2958 166.621 76.2958ZM179.686 76.2122C178.501 76.2122 177.435 75.9683 176.487 75.4804C175.553 74.9786 174.821 74.2886 174.291 73.4104C173.762 72.5322 173.497 71.5355 173.497 70.4204C173.497 69.3052 173.762 68.3086 174.291 67.4304C174.821 66.5522 175.553 65.8692 176.487 65.3813C177.435 64.8795 178.501 64.6286 179.686 64.6286C180.871 64.6286 181.93 64.8795 182.864 65.3813C183.798 65.8692 184.53 66.5522 185.059 67.4304C185.589 68.3086 185.854 69.3052 185.854 70.4204C185.854 71.5355 185.589 72.5322 185.059 73.4104C184.53 74.2886 183.798 74.9786 182.864 75.4804C181.93 75.9683 180.871 76.2122 179.686 76.2122ZM179.686 73.5358C180.522 73.5358 181.205 73.257 181.735 72.6995C182.279 72.128 182.55 71.3683 182.55 70.4204C182.55 69.4725 182.279 68.7198 181.735 68.1622C181.205 67.5907 180.522 67.3049 179.686 67.3049C178.849 67.3049 178.159 67.5907 177.616 68.1622C177.072 68.7198 176.8 69.4725 176.8 70.4204C176.8 71.3683 177.072 72.128 177.616 72.6995C178.159 73.257 178.849 73.5358 179.686 73.5358ZM198.893 64.7958L194.147 76.0449H190.781L186.055 64.7958H189.422L192.537 72.4486L195.757 64.7958H198.893ZM200.224 64.7958H203.486V76.0449H200.224V64.7958ZM201.855 63.2276C201.256 63.2276 200.768 63.0534 200.392 62.7049C200.015 62.3564 199.827 61.9243 199.827 61.4086C199.827 60.8928 200.015 60.4607 200.392 60.1122C200.768 59.7637 201.256 59.5895 201.855 59.5895C202.455 59.5895 202.943 59.7567 203.319 60.0913C203.695 60.4258 203.884 60.844 203.884 61.3458C203.884 61.8895 203.695 62.3425 203.319 62.7049C202.943 63.0534 202.455 63.2276 201.855 63.2276ZM217.972 60.5304V76.0449H214.856V74.7486C214.048 75.7243 212.877 76.2122 211.344 76.2122C210.284 76.2122 209.322 75.9752 208.458 75.5013C207.608 75.0273 206.939 74.3513 206.451 73.4731C205.963 72.5949 205.719 71.5773 205.719 70.4204C205.719 69.2634 205.963 68.2458 206.451 67.3676C206.939 66.4895 207.608 65.8134 208.458 65.3395C209.322 64.8655 210.284 64.6286 211.344 64.6286C212.779 64.6286 213.901 65.0816 214.71 65.9876V60.5304H217.972ZM211.908 73.5358C212.73 73.5358 213.414 73.257 213.957 72.6995C214.501 72.128 214.773 71.3683 214.773 70.4204C214.773 69.4725 214.501 68.7198 213.957 68.1622C213.414 67.5907 212.73 67.3049 211.908 67.3049C211.072 67.3049 210.382 67.5907 209.838 68.1622C209.294 68.7198 209.023 69.4725 209.023 70.4204C209.023 71.3683 209.294 72.128 209.838 72.6995C210.382 73.257 211.072 73.5358 211.908 73.5358Z" fill="white"/>
</svg>
