<svg width="31" height="31" viewBox="0 0 31 31" fill="black" xmlns="http://www.w3.org/2000/svg">
<path fill-rule="evenodd" clip-rule="evenodd" d="M15.5008 0.700783C11.5756 0.700783 7.81114 2.26006 5.0356 5.0356C2.26006 7.81114 0.700783 11.5756 0.700783 15.5008C0.700783 19.426 2.26006 23.1904 5.0356 25.966C7.81114 28.7415 11.5756 30.3008 15.5008 30.3008C19.426 30.3008 23.1904 28.7415 25.966 25.966C28.7415 23.1904 30.3008 19.426 30.3008 15.5008C30.3008 11.5756 28.7415 7.81114 25.966 5.0356C23.1904 2.26006 19.426 0.700783 15.5008 0.700783V0.700783ZM8.64283 16.8087L14.1928 22.3587C14.5417 22.6957 15.0091 22.8822 15.4941 22.878C15.9792 22.8738 16.4432 22.6792 16.7862 22.3362C17.1292 21.9932 17.3238 21.5292 17.328 21.0441C17.3322 20.5591 17.1457 20.0917 16.8087 19.7428L14.4167 17.3508L21.0508 17.3508C21.5414 17.3508 22.012 17.1559 22.3589 16.8089C22.7059 16.462 22.9008 15.9914 22.9008 15.5008C22.9008 15.0101 22.7059 14.5396 22.3589 14.1926C22.012 13.8457 21.5414 13.6508 21.0508 13.6508L14.4167 13.6508L16.8087 11.2587C16.9854 11.0881 17.1264 10.8839 17.2233 10.6582C17.3203 10.4325 17.3713 10.1898 17.3734 9.94412C17.3756 9.69848 17.3288 9.45488 17.2358 9.22752C17.1427 9.00016 17.0054 8.7936 16.8317 8.6199C16.658 8.4462 16.4514 8.30883 16.224 8.21581C15.9967 8.12279 15.7531 8.07598 15.5074 8.07812C15.2618 8.08025 15.019 8.13129 14.7933 8.22824C14.5676 8.3252 14.3635 8.46614 14.1928 8.64283L8.64283 14.1928C8.29601 14.5398 8.10118 15.0102 8.10118 15.5008C8.10118 15.9913 8.29601 16.4618 8.64283 16.8087V16.8087Z"/>
</svg>
