<svg width="31" height="31" viewBox="0 0 31 31" fill="#71717A" xmlns="http://www.w3.org/2000/svg">
<path fill-rule="evenodd" clip-rule="evenodd" d="M15.4992 30.2992C19.4244 30.2992 23.1889 28.7399 25.9644 25.9644C28.7399 23.1889 30.2992 19.4244 30.2992 15.4992C30.2992 11.574 28.7399 7.80958 25.9644 5.03404C23.1889 2.2585 19.4244 0.699219 15.4992 0.699219C11.574 0.699219 7.80958 2.2585 5.03404 5.03404C2.2585 7.80958 0.699219 11.574 0.699219 15.4992C0.699219 19.4244 2.2585 23.1889 5.03404 25.9644C7.80958 28.7399 11.574 30.2992 15.4992 30.2992V30.2992ZM22.3572 14.1913L16.8072 8.64127C16.4583 8.30428 15.9909 8.11781 15.5059 8.12202C15.0208 8.12624 14.5568 8.3208 14.2138 8.6638C13.8708 9.00681 13.6762 9.47081 13.672 9.95588C13.6678 10.4409 13.8543 10.9083 14.1913 11.2572L16.5833 13.6492H9.94922C9.45857 13.6492 8.98801 13.8441 8.64107 14.1911C8.29413 14.538 8.09922 15.0086 8.09922 15.4992C8.09922 15.9899 8.29413 16.4604 8.64107 16.8074C8.98801 17.1543 9.45857 17.3492 9.94922 17.3492H16.5833L14.1913 19.7413C14.0146 19.9119 13.8736 20.1161 13.7767 20.3418C13.6797 20.5675 13.6287 20.8102 13.6266 21.0559C13.6244 21.3015 13.6712 21.5451 13.7642 21.7725C13.8573 21.9998 13.9946 22.2064 14.1683 22.3801C14.342 22.5538 14.5486 22.6912 14.776 22.7842C15.0033 22.8772 15.2469 22.924 15.4926 22.9219C15.7382 22.9197 15.981 22.8687 16.2067 22.7718C16.4324 22.6748 16.6365 22.5339 16.8072 22.3572L22.3572 16.8072C22.704 16.4602 22.8988 15.9898 22.8988 15.4992C22.8988 15.0087 22.704 14.5382 22.3572 14.1913V14.1913Z"/>
</svg>
