<svg width="17" height="17" viewBox="0 0 17 17" fill="none" xmlns="http://www.w3.org/2000/svg">
<path fill-rule="evenodd" clip-rule="evenodd" d="M8.58586 16.8592C10.7138 16.8592 12.7546 16.0139 14.2592 14.5092C15.7639 13.0046 16.6092 10.9638 16.6092 8.83586C16.6092 6.70794 15.7639 4.66716 14.2592 3.16249C12.7546 1.65782 10.7138 0.8125 8.58586 0.8125C6.45794 0.8125 4.41716 1.65782 2.91249 3.16249C1.40782 4.66716 0.5625 6.70794 0.5625 8.83586C0.5625 10.9638 1.40782 13.0046 2.91249 14.5092C4.41716 16.0139 6.45794 16.8592 8.58586 16.8592V16.8592ZM9.58878 5.8271C9.58878 5.56111 9.48312 5.30601 9.29504 5.11793C9.10695 4.92985 8.85186 4.82418 8.58586 4.82418C8.31987 4.82418 8.06478 4.92985 7.87669 5.11793C7.68861 5.30601 7.58294 5.56111 7.58294 5.8271V9.42358L6.28617 8.1268C6.09701 7.94411 5.84367 7.84302 5.58071 7.84531C5.31775 7.84759 5.0662 7.95307 4.88025 8.13902C4.69431 8.32497 4.58883 8.57651 4.58654 8.83947C4.58426 9.10244 4.68535 9.35578 4.86804 9.54493L7.8768 12.5537C8.06487 12.7417 8.31993 12.8473 8.58586 12.8473C8.8518 12.8473 9.10685 12.7417 9.29493 12.5537L12.3037 9.54493C12.4864 9.35578 12.5875 9.10244 12.5852 8.83947C12.5829 8.57651 12.4774 8.32497 12.2915 8.13902C12.1055 7.95307 11.854 7.84759 11.591 7.84531C11.3281 7.84302 11.0747 7.94411 10.8856 8.1268L9.58878 9.42358V5.8271Z"/>
</svg>
