<svg width="19" height="32" viewBox="0 0 19 32" fill="none" xmlns="http://www.w3.org/2000/svg">
<path d="M13.2306 0.341797H5.47504C4.10503 0.345846 2.79228 0.891879 1.82352 1.86063C0.85477 2.82939 0.308737 4.14214 0.304688 5.51215V14.1984C0.304688 15.0749 0.985721 15.8206 1.86145 15.8521C2.07847 15.86 2.29487 15.8241 2.4977 15.7465C2.70054 15.6689 2.88565 15.5512 3.04197 15.4005C3.1983 15.2497 3.32263 15.069 3.40754 14.8691C3.49245 14.6692 3.5362 14.4543 3.53616 14.2371V6.18026C3.53411 6.01352 3.59516 5.85217 3.70708 5.72857C3.819 5.60496 3.97352 5.52823 4.13964 5.51377C4.22804 5.5079 4.31671 5.52027 4.40013 5.55011C4.48356 5.57995 4.55995 5.62663 4.62458 5.68723C4.6892 5.74784 4.74067 5.82109 4.7758 5.90243C4.81092 5.98377 4.82894 6.07147 4.82875 6.16006V29.5058C4.82875 29.9986 5.02451 30.4713 5.37297 30.8197C5.72143 31.1682 6.19405 31.3639 6.68685 31.3639C7.17964 31.3639 7.65226 31.1682 8.00072 30.8197C8.34918 30.4713 8.54494 29.9986 8.54494 29.5058V17.9808C8.54208 17.7722 8.61816 17.5702 8.75794 17.4153C8.89771 17.2603 9.09086 17.164 9.29869 17.1455C9.40924 17.138 9.52014 17.1534 9.62449 17.1907C9.72884 17.228 9.82441 17.2863 9.90526 17.3621C9.9861 17.4378 10.0505 17.5294 10.0944 17.6311C10.1384 17.7329 10.1609 17.8425 10.1607 17.9533V29.5058C10.1607 29.9986 10.3564 30.4713 10.7049 30.8197C11.0534 31.1682 11.526 31.3639 12.0188 31.3639C12.5116 31.3639 12.9842 31.1682 13.3327 30.8197C13.6811 30.4713 13.8769 29.9986 13.8769 29.5058V6.18026C13.8748 6.01352 13.9359 5.85217 14.0478 5.72857C14.1597 5.60496 14.3142 5.52823 14.4804 5.51377C14.5688 5.5079 14.6574 5.52027 14.7408 5.55011C14.8243 5.57995 14.9007 5.62663 14.9653 5.68723C15.0299 5.74784 15.0814 5.82109 15.1165 5.90243C15.1516 5.98377 15.1697 6.07147 15.1695 6.16006V14.2C15.1695 15.0765 15.8505 15.8222 16.7262 15.8537C16.9434 15.8616 17.1599 15.8257 17.3629 15.748C17.5658 15.6703 17.751 15.5524 17.9073 15.4015C18.0637 15.2506 18.188 15.0697 18.2728 14.8696C18.3576 14.6696 18.4012 14.4544 18.4009 14.2371V5.51215C18.3969 4.14214 17.8509 2.82939 16.8821 1.86063C15.9133 0.891879 14.6006 0.345846 13.2306 0.341797Z" fill="#3B82F6"/>
</svg>
