<svg width="19" height="32" viewBox="0 0 19 32" fill="none" xmlns="http://www.w3.org/2000/svg">
<path d="M12.9259 0.0683594H5.17036C3.80034 0.0724086 2.48759 0.618442 1.51884 1.5872C0.550082 2.55595 0.00404924 3.8687 0 5.23872V13.9249C0 14.8015 0.681033 15.5471 1.55676 15.5786C1.77379 15.5865 1.99018 15.5506 2.19302 15.4731C2.39585 15.3955 2.58096 15.2778 2.73729 15.127C2.89361 14.9763 3.01795 14.7956 3.10286 14.5957C3.18777 14.3958 3.23151 14.1809 3.23147 13.9637V5.90682C3.22942 5.74009 3.29047 5.57874 3.40239 5.45513C3.51432 5.33152 3.66883 5.25479 3.83495 5.24033C3.92336 5.23446 4.01202 5.24683 4.09545 5.27667C4.17887 5.30651 4.25526 5.35319 4.31989 5.4138C4.38451 5.47441 4.43599 5.54766 4.47111 5.629C4.50623 5.71034 4.52426 5.79803 4.52406 5.88663V29.2324C4.52406 29.7252 4.71983 30.1978 5.06829 30.5463C5.41675 30.8947 5.88936 31.0905 6.38216 31.0905C6.87496 31.0905 7.34757 30.8947 7.69603 30.5463C8.04449 30.1978 8.24026 29.7252 8.24026 29.2324V17.7074C8.23739 17.4987 8.31347 17.2967 8.45325 17.1418C8.59303 16.9869 8.78617 16.8905 8.994 16.872C9.10455 16.8646 9.21545 16.88 9.3198 16.9173C9.42415 16.9545 9.51972 17.0128 9.60057 17.0886C9.68141 17.1644 9.74581 17.256 9.78975 17.3577C9.8337 17.4594 9.85624 17.5691 9.85599 17.6799V29.2324C9.85599 29.7252 10.0518 30.1978 10.4002 30.5463C10.7487 30.8947 11.2213 31.0905 11.7141 31.0905C12.2069 31.0905 12.6795 30.8947 13.028 30.5463C13.3764 30.1978 13.5722 29.7252 13.5722 29.2324V5.90682C13.5701 5.74009 13.6312 5.57874 13.7431 5.45513C13.855 5.33152 14.0095 5.25479 14.1757 5.24033C14.2641 5.23446 14.3527 5.24683 14.4362 5.27667C14.5196 5.30651 14.596 5.35319 14.6606 5.4138C14.7252 5.47441 14.7767 5.54766 14.8118 5.629C14.8469 5.71034 14.865 5.79803 14.8648 5.88663V13.9265C14.8648 14.8031 15.5458 15.5487 16.4215 15.5802C16.6387 15.5882 16.8552 15.5522 17.0582 15.4745C17.2611 15.3968 17.4463 15.279 17.6026 15.1281C17.759 14.9772 17.8833 14.7963 17.9681 14.5962C18.0529 14.3961 18.0965 14.181 18.0962 13.9637V5.23872C18.0922 3.8687 17.5462 2.55595 16.5774 1.5872C15.6087 0.618442 14.2959 0.0724086 12.9259 0.0683594Z" fill="white"/>
</svg>
