<svg width="43" height="43" viewBox="0 0 43 43" fill="none" xmlns="http://www.w3.org/2000/svg">
<path fill-rule="evenodd" clip-rule="evenodd" d="M21.4493 42.4923C27.082 42.4923 32.4841 40.2547 36.467 36.2717C40.45 32.2887 42.6876 26.8867 42.6876 21.2539C42.6876 15.6212 40.45 10.2191 36.467 6.23618C32.4841 2.25323 27.082 0.015625 21.4493 0.015625C15.8165 0.015625 10.4145 2.25323 6.4315 6.23618C2.44854 10.2191 0.210938 15.6212 0.210938 21.2539C0.210938 26.8867 2.44854 32.2887 6.4315 36.2717C10.4145 40.2547 15.8165 42.4923 21.4493 42.4923V42.4923ZM24.104 10.6348C24.104 9.93069 23.8243 9.25543 23.3265 8.75756C22.8286 8.25969 22.1533 7.97999 21.4493 7.97999C20.7452 7.97999 20.0699 8.25969 19.572 8.75756C19.0742 9.25543 18.7945 9.93069 18.7945 10.6348V21.2539C18.7946 21.958 19.0744 22.6331 19.5723 23.1309L27.0801 30.6413C27.3267 30.8879 27.6195 31.0836 27.9418 31.2171C28.2641 31.3506 28.6095 31.4193 28.9583 31.4193C29.3072 31.4193 29.6526 31.3506 29.9748 31.2171C30.2971 31.0836 30.5899 30.8879 30.8366 30.6413C31.0832 30.3946 31.2789 30.1018 31.4124 29.7795C31.5459 29.4573 31.6146 29.1118 31.6146 28.763C31.6146 28.4142 31.5459 28.0688 31.4124 27.7465C31.2789 27.4242 31.0832 27.1314 30.8366 26.8848L24.104 20.1549V10.6348Z" />
</svg>
