<svg width="28" height="28" viewBox="0 0 28 28" fill="none" xmlns="http://www.w3.org/2000/svg">
<path fill-rule="evenodd" clip-rule="evenodd" d="M13.6 27.2C17.2069 27.2 20.6662 25.7671 23.2167 23.2167C25.7671 20.6662 27.2 17.2069 27.2 13.6C27.2 9.99306 25.7671 6.53384 23.2167 3.98335C20.6662 1.43285 17.2069 0 13.6 0C9.99306 0 6.53384 1.43285 3.98335 3.98335C1.43285 6.53384 0 9.99306 0 13.6C0 17.2069 1.43285 20.6662 3.98335 23.2167C6.53384 25.7671 9.99306 27.2 13.6 27.2ZM8.5 11.9C8.04913 11.9 7.61673 12.0791 7.29792 12.3979C6.97911 12.7167 6.8 13.1491 6.8 13.6C6.8 14.0509 6.97911 14.4833 7.29792 14.8021C7.61673 15.1209 8.04913 15.3 8.5 15.3H18.7C19.1509 15.3 19.5833 15.1209 19.9021 14.8021C20.2209 14.4833 20.4 14.0509 20.4 13.6C20.4 13.1491 20.2209 12.7167 19.9021 12.3979C19.5833 12.0791 19.1509 11.9 18.7 11.9H8.5Z" fill="#3B82F6"/>
</svg>
