<svg width="40" height="41" viewBox="-2 -2 44 45" fill="none" xmlns="http://www.w3.org/2000/svg">
<path d="M9.43637 9.26727C11.88 9.26727 13.861 7.28629 13.861 4.84262C13.861 2.39895 11.88 0.417969 9.43637 0.417969C6.9927 0.417969 5.01172 2.39895 5.01172 4.84262C5.01172 7.28629 6.9927 9.26727 9.43637 9.26727Z"/>
<path d="M13.4407 10.5293H5.85557C4.51566 10.5333 3.23175 11.0673 2.28429 12.0148C1.33682 12.9622 0.802788 14.2461 0.798828 15.586V24.0814C0.798828 24.9386 1.4649 25.6679 2.32138 25.6987C2.53364 25.7065 2.74528 25.6714 2.94365 25.5955C3.14203 25.5196 3.32307 25.4045 3.47597 25.2571C3.62886 25.1096 3.75046 24.9329 3.8335 24.7374C3.91654 24.5419 3.95933 24.3317 3.95929 24.1193V16.2395C3.95728 16.0764 4.017 15.9186 4.12646 15.7977C4.23592 15.6768 4.38704 15.6018 4.54951 15.5876C4.63597 15.5819 4.72269 15.594 4.80428 15.6232C4.88587 15.6523 4.96059 15.698 5.02379 15.7573C5.087 15.8166 5.13734 15.8882 5.17169 15.9677C5.20604 16.0473 5.22367 16.1331 5.22348 16.2197V39.0525C5.22348 39.5345 5.41494 39.9967 5.75574 40.3375C6.09655 40.6783 6.55877 40.8698 7.04074 40.8698C7.52271 40.8698 7.98494 40.6783 8.32575 40.3375C8.66655 39.9967 8.85801 39.5345 8.85801 39.0525V27.7807C8.85521 27.5766 8.92962 27.3791 9.06632 27.2276C9.20303 27.0761 9.39193 26.9818 9.59519 26.9637C9.70331 26.9564 9.81178 26.9715 9.91383 27.008C10.0159 27.0444 10.1094 27.1014 10.1884 27.1755C10.2675 27.2497 10.3305 27.3392 10.3735 27.4387C10.4164 27.5382 10.4385 27.6455 10.4382 27.7538V39.0525C10.4382 39.5345 10.6297 39.9967 10.9705 40.3375C11.3113 40.6783 11.7735 40.8698 12.2555 40.8698C12.7375 40.8698 13.1997 40.6783 13.5405 40.3375C13.8813 39.9967 14.0728 39.5345 14.0728 39.0525V16.2395C14.0708 16.0764 14.1305 15.9186 14.2399 15.7977C14.3494 15.6768 14.5005 15.6018 14.663 15.5876C14.7495 15.5819 14.8362 15.594 14.9178 15.6232C14.9994 15.6523 15.0741 15.698 15.1373 15.7573C15.2005 15.8166 15.2508 15.8882 15.2852 15.9677C15.3195 16.0473 15.3372 16.1331 15.337 16.2197V24.0829C15.337 24.9402 16.003 25.6695 16.8595 25.7003C17.0719 25.7081 17.2837 25.6729 17.4822 25.5969C17.6806 25.5209 17.8618 25.4057 18.0147 25.2581C18.1676 25.1105 18.2892 24.9336 18.3721 24.7379C18.455 24.5422 18.4977 24.3318 18.4974 24.1193V15.586C18.4935 14.2461 17.9594 12.9622 17.012 12.0148C16.0645 11.0673 14.7806 10.5333 13.4407 10.5293Z"/>
<path d="M30.6746 9.26727C33.1183 9.26727 35.0993 7.28629 35.0993 4.84262C35.0993 2.39895 33.1183 0.417969 30.6746 0.417969C28.231 0.417969 26.25 2.39895 26.25 4.84262C26.25 7.28629 28.231 9.26727 30.6746 9.26727Z"/>
<path d="M34.679 10.5293H27.0939C25.7539 10.5333 24.47 11.0673 23.5226 12.0148C22.5751 12.9622 22.0411 14.2461 22.0371 15.586V24.0814C22.0371 24.9386 22.7032 25.6679 23.5597 25.6987C23.7719 25.7065 23.9836 25.6714 24.1819 25.5955C24.3803 25.5196 24.5614 25.4045 24.7142 25.2571C24.8671 25.1096 24.9887 24.9329 25.0718 24.7374C25.1548 24.5419 25.1976 24.3317 25.1976 24.1193V16.2395C25.1956 16.0764 25.2553 15.9186 25.3647 15.7977C25.4742 15.6768 25.6253 15.6018 25.7878 15.5876C25.8743 15.5819 25.961 15.594 26.0426 15.6232C26.1242 15.6523 26.1989 15.698 26.2621 15.7573C26.3253 15.8166 26.3756 15.8882 26.41 15.9677C26.4443 16.0473 26.4619 16.1331 26.4618 16.2197V39.0525C26.4618 39.5345 26.6532 39.9967 26.994 40.3375C27.3348 40.6783 27.7971 40.8698 28.279 40.8698C28.761 40.8698 29.2232 40.6783 29.564 40.3375C29.9048 39.9967 30.0963 39.5345 30.0963 39.0525V27.7807C30.0935 27.5766 30.1679 27.3791 30.3046 27.2276C30.4413 27.0761 30.6302 26.9818 30.8335 26.9637C30.9416 26.9564 31.0501 26.9715 31.1521 27.008C31.2542 27.0444 31.3476 27.1014 31.4267 27.1755C31.5058 27.2497 31.5688 27.3392 31.6117 27.4387C31.6547 27.5382 31.6768 27.6455 31.6765 27.7538V39.0525C31.6765 39.5345 31.868 39.9967 32.2088 40.3375C32.5496 40.6783 33.0118 40.8698 33.4938 40.8698C33.9758 40.8698 34.438 40.6783 34.7788 40.3375C35.1196 39.9967 35.3111 39.5345 35.3111 39.0525V16.2395C35.309 16.0764 35.3688 15.9186 35.4782 15.7977C35.5877 15.6768 35.7388 15.6018 35.9013 15.5876C35.9877 15.5819 36.0745 15.594 36.156 15.6232C36.2376 15.6523 36.3124 15.698 36.3756 15.7573C36.4388 15.8166 36.4891 15.8882 36.5235 15.9677C36.5578 16.0473 36.5754 16.1331 36.5752 16.2197V24.0829C36.5752 24.9402 37.2413 25.6695 38.0978 25.7003C38.3102 25.7081 38.522 25.6729 38.7204 25.5969C38.9189 25.5209 39.1 25.4057 39.253 25.2581C39.4059 25.1105 39.5274 24.9336 39.6104 24.7379C39.6933 24.5422 39.736 24.3318 39.7357 24.1193V15.586C39.7317 14.2461 39.1977 12.9622 38.2502 12.0148C37.3028 11.0673 36.0189 10.5333 34.679 10.5293Z"/>
</svg>
