<svg width="19" height="41" viewBox="0 0 19 41" fill="none" xmlns="http://www.w3.org/2000/svg">
<path d="M9.43637 9.26727C11.88 9.26727 13.861 7.28629 13.861 4.84262C13.861 2.39895 11.88 0.417969 9.43637 0.417969C6.9927 0.417969 5.01172 2.39895 5.01172 4.84262C5.01172 7.28629 6.9927 9.26727 9.43637 9.26727Z" />
<path d="M13.4407 10.5293H5.85557C4.51566 10.5333 3.23175 11.0673 2.28429 12.0148C1.33682 12.9622 0.802788 14.2461 0.798828 15.586V24.0814C0.798828 24.9386 1.4649 25.6679 2.32138 25.6987C2.53364 25.7065 2.74528 25.6714 2.94365 25.5955C3.14203 25.5196 3.32307 25.4045 3.47597 25.2571C3.62886 25.1096 3.75046 24.9329 3.8335 24.7374C3.91654 24.5419 3.95933 24.3317 3.95929 24.1193V16.2395C3.95728 16.0764 4.017 15.9186 4.12646 15.7977C4.23592 15.6768 4.38704 15.6018 4.54951 15.5876C4.63597 15.5819 4.72269 15.594 4.80428 15.6232C4.88587 15.6523 4.96059 15.698 5.02379 15.7573C5.087 15.8166 5.13734 15.8882 5.17169 15.9677C5.20604 16.0473 5.22367 16.1331 5.22348 16.2197V39.0525C5.22348 39.5345 5.41494 39.9967 5.75574 40.3375C6.09655 40.6783 6.55877 40.8698 7.04074 40.8698C7.52271 40.8698 7.98494 40.6783 8.32575 40.3375C8.66655 39.9967 8.85801 39.5345 8.85801 39.0525V27.7807C8.85521 27.5766 8.92962 27.3791 9.06632 27.2276C9.20303 27.0761 9.39193 26.9818 9.59519 26.9637C9.70331 26.9564 9.81178 26.9715 9.91383 27.008C10.0159 27.0444 10.1094 27.1014 10.1884 27.1755C10.2675 27.2497 10.3305 27.3392 10.3735 27.4387C10.4164 27.5382 10.4385 27.6455 10.4382 27.7538V39.0525C10.4382 39.5345 10.6297 39.9967 10.9705 40.3375C11.3113 40.6783 11.7735 40.8698 12.2555 40.8698C12.7375 40.8698 13.1997 40.6783 13.5405 40.3375C13.8813 39.9967 14.0728 39.5345 14.0728 39.0525V16.2395C14.0708 16.0764 14.1305 15.9186 14.2399 15.7977C14.3494 15.6768 14.5005 15.6018 14.663 15.5876C14.7495 15.5819 14.8362 15.594 14.9178 15.6232C14.9994 15.6523 15.0741 15.698 15.1373 15.7573C15.2005 15.8166 15.2508 15.8882 15.2852 15.9677C15.3195 16.0473 15.3372 16.1331 15.337 16.2197V24.0829C15.337 24.9402 16.003 25.6695 16.8595 25.7003C17.0719 25.7081 17.2837 25.6729 17.4822 25.5969C17.6806 25.5209 17.8618 25.4057 18.0147 25.2581C18.1676 25.1105 18.2892 24.9336 18.3721 24.7379C18.455 24.5422 18.4977 24.3318 18.4974 24.1193V15.586C18.4935 14.2461 17.9594 12.9622 17.012 12.0148C16.0645 11.0673 14.7806 10.5333 13.4407 10.5293Z" />
</svg>
