<svg width="16" height="16" viewBox="0 0 16 16" fill="white" xmlns="http://www.w3.org/2000/svg">
<path fill-rule="evenodd" clip-rule="evenodd" d="M8 15.8863C10.1217 15.8863 12.1566 15.0639 13.6569 13.5999C15.1571 12.1359 16 10.1503 16 8.07989C16 6.00949 15.1571 4.02389 13.6569 2.55989C12.1566 1.0959 10.1217 0.273438 8 0.273438C5.87827 0.273438 3.84344 1.0959 2.34315 2.55989C0.842855 4.02389 0 6.00949 0 8.07989C0 10.1503 0.842855 12.1359 2.34315 13.5999C3.84344 15.0639 5.87827 15.8863 8 15.8863V15.8863ZM11.707 6.81817C11.8892 6.63413 11.99 6.38764 11.9877 6.13179C11.9854 5.87593 11.8802 5.63119 11.6948 5.45027C11.5094 5.26934 11.2586 5.16672 10.9964 5.1645C10.7342 5.16227 10.4816 5.26063 10.293 5.43838L7 8.65171L5.707 7.38999C5.5184 7.21224 5.2658 7.11389 5.0036 7.11611C4.7414 7.11833 4.49059 7.22096 4.30518 7.40188C4.11977 7.5828 4.0146 7.82755 4.01233 8.0834C4.01005 8.33925 4.11084 8.58574 4.293 8.76978L6.293 10.7214C6.48053 10.9043 6.73484 11.0071 7 11.0071C7.26516 11.0071 7.51947 10.9043 7.707 10.7214L11.707 6.81817V6.81817Z"/>
</svg>
