<svg width="232" height="92" viewBox="0 0 232 92" fill="none" xmlns="http://www.w3.org/2000/svg">
<path d="M21.8662 22.8645C25.351 22.8645 28.0274 23.7009 29.8953 25.3736C31.7631 27.0185 32.6971 29.5136 32.6971 32.8591V45.6973H26.5916V42.8954C25.365 44.9864 23.0789 46.0318 19.7334 46.0318C18.005 46.0318 16.4995 45.7391 15.2171 45.1536C13.9625 44.5682 13.0007 43.7597 12.3316 42.7282C11.6625 41.6967 11.328 40.5258 11.328 39.2154C11.328 37.1245 12.1086 35.4797 13.6698 34.2809C15.2589 33.0821 17.6983 32.4827 20.988 32.4827H26.1734C26.1734 31.0609 25.7413 29.9736 24.8771 29.2209C24.0128 28.4403 22.7165 28.05 20.988 28.05C19.7892 28.05 18.6043 28.2451 17.4334 28.6354C16.2904 28.9979 15.3146 29.4997 14.5062 30.1409L12.1643 25.5827C13.391 24.7185 14.8546 24.0494 16.5553 23.5754C18.2837 23.1015 20.054 22.8645 21.8662 22.8645ZM21.3643 41.6409C22.4795 41.6409 23.4692 41.39 24.3334 40.8882C25.1977 40.3585 25.811 39.5918 26.1734 38.5882V36.2882H21.6989C19.0225 36.2882 17.6843 37.1664 17.6843 38.9227C17.6843 39.7591 18.005 40.4282 18.6462 40.93C19.3153 41.4039 20.2213 41.6409 21.3643 41.6409ZM60.8845 34.5318C60.8845 34.6154 60.8427 35.2009 60.759 36.2882H43.739C44.0457 37.6821 44.7705 38.7833 45.9136 39.5918C47.0566 40.4003 48.4784 40.8045 50.179 40.8045C51.3499 40.8045 52.3815 40.6373 53.2736 40.3027C54.1936 39.9403 55.0439 39.3827 55.8245 38.63L59.2954 42.3936C57.1766 44.8191 54.0821 46.0318 50.0118 46.0318C47.4748 46.0318 45.2305 45.5439 43.279 44.5682C41.3275 43.5645 39.8221 42.1845 38.7627 40.4282C37.7033 38.6718 37.1736 36.6785 37.1736 34.4482C37.1736 32.2457 37.6893 30.2664 38.7209 28.51C39.7802 26.7257 41.216 25.3457 43.0281 24.37C44.8681 23.3664 46.9172 22.8645 49.1754 22.8645C51.3778 22.8645 53.3712 23.3385 55.1554 24.2864C56.9396 25.2342 58.3336 26.6003 59.3372 28.3845C60.3687 30.1409 60.8845 32.19 60.8845 34.5318ZM49.2172 27.7991C47.7396 27.7991 46.499 28.2173 45.4954 29.0536C44.4918 29.89 43.8784 31.033 43.6554 32.4827H54.7372C54.5142 31.0609 53.9009 29.9318 52.8972 29.0954C51.8936 28.2312 50.6669 27.7991 49.2172 27.7991ZM71.4586 26.1682C72.2392 25.0809 73.2847 24.2585 74.595 23.7009C75.9332 23.1433 77.4665 22.8645 79.195 22.8645V28.8864C78.4701 28.8306 77.9822 28.8027 77.7313 28.8027C75.8635 28.8027 74.3998 29.3324 73.3404 30.3918C72.281 31.4233 71.7513 32.9845 71.7513 35.0754V45.6973H65.2277V23.1991H71.4586V26.1682ZM93.5752 46.0318C91.2055 46.0318 89.0728 45.5439 87.177 44.5682C85.3091 43.5645 83.8455 42.1845 82.7861 40.4282C81.7267 38.6718 81.197 36.6785 81.197 34.4482C81.197 32.2179 81.7267 30.2245 82.7861 28.4682C83.8455 26.7118 85.3091 25.3457 87.177 24.37C89.0728 23.3664 91.2055 22.8645 93.5752 22.8645C95.9449 22.8645 98.0637 23.3664 99.9316 24.37C101.799 25.3457 103.263 26.7118 104.322 28.4682C105.382 30.2245 105.912 32.2179 105.912 34.4482C105.912 36.6785 105.382 38.6718 104.322 40.4282C103.263 42.1845 101.799 43.5645 99.9316 44.5682C98.0637 45.5439 95.9449 46.0318 93.5752 46.0318ZM93.5752 40.6791C95.2479 40.6791 96.614 40.1215 97.6734 39.0064C98.7607 37.8633 99.3043 36.3439 99.3043 34.4482C99.3043 32.5524 98.7607 31.047 97.6734 29.9318C96.614 28.7888 95.2479 28.2173 93.5752 28.2173C91.9025 28.2173 90.5225 28.7888 89.4352 29.9318C88.3479 31.047 87.8043 32.5524 87.8043 34.4482C87.8043 36.3439 88.3479 37.8633 89.4352 39.0064C90.5225 40.1215 91.9025 40.6791 93.5752 40.6791ZM117.841 46.0318C115.973 46.0318 114.147 45.8088 112.363 45.3627C110.579 44.8888 109.157 44.3033 108.098 43.6064L110.272 38.9227C111.276 39.5639 112.488 40.0936 113.91 40.5118C115.332 40.9021 116.726 41.0973 118.092 41.0973C120.852 41.0973 122.232 40.4142 122.232 39.0482C122.232 38.407 121.856 37.947 121.103 37.6682C120.35 37.3894 119.193 37.1524 117.632 36.9573C115.792 36.6785 114.273 36.3579 113.074 35.9954C111.875 35.633 110.83 34.9918 109.938 34.0718C109.073 33.1518 108.641 31.8415 108.641 30.1409C108.641 28.7191 109.045 27.4645 109.854 26.3773C110.69 25.2621 111.889 24.3979 113.45 23.7845C115.039 23.1712 116.907 22.8645 119.054 22.8645C120.643 22.8645 122.218 23.0457 123.779 23.4082C125.368 23.7427 126.679 24.2167 127.71 24.83L125.536 29.4718C123.556 28.3567 121.396 27.7991 119.054 27.7991C117.66 27.7991 116.615 27.9942 115.918 28.3845C115.221 28.7748 114.872 29.2767 114.872 29.89C114.872 30.587 115.248 31.0748 116.001 31.3536C116.754 31.6324 117.953 31.8973 119.598 32.1482C121.438 32.4548 122.943 32.7894 124.114 33.1518C125.285 33.4864 126.302 34.1136 127.167 35.0336C128.031 35.9536 128.463 37.2361 128.463 38.8809C128.463 40.2748 128.045 41.5154 127.208 42.6027C126.372 43.69 125.145 44.5403 123.528 45.1536C121.939 45.7391 120.044 46.0318 117.841 46.0318ZM143.193 46.0318C140.824 46.0318 138.691 45.5439 136.795 44.5682C134.927 43.5645 133.464 42.1845 132.404 40.4282C131.345 38.6718 130.815 36.6785 130.815 34.4482C130.815 32.2179 131.345 30.2245 132.404 28.4682C133.464 26.7118 134.927 25.3457 136.795 24.37C138.691 23.3664 140.824 22.8645 143.193 22.8645C145.563 22.8645 147.682 23.3664 149.55 24.37C151.418 25.3457 152.881 26.7118 153.941 28.4682C155 30.2245 155.53 32.2179 155.53 34.4482C155.53 36.6785 155 38.6718 153.941 40.4282C152.881 42.1845 151.418 43.5645 149.55 44.5682C147.682 45.5439 145.563 46.0318 143.193 46.0318ZM143.193 40.6791C144.866 40.6791 146.232 40.1215 147.292 39.0064C148.379 37.8633 148.923 36.3439 148.923 34.4482C148.923 32.5524 148.379 31.047 147.292 29.9318C146.232 28.7888 144.866 28.2173 143.193 28.2173C141.521 28.2173 140.141 28.7888 139.053 29.9318C137.966 31.047 137.423 32.5524 137.423 34.4482C137.423 36.3439 137.966 37.8633 139.053 39.0064C140.141 40.1215 141.521 40.6791 143.193 40.6791ZM159.89 14.6682H166.414V45.6973H159.89V14.6682ZM194.799 23.1991L185.307 45.6973H178.574L169.123 23.1991H175.856L182.087 38.5045L188.527 23.1991H194.799ZM218.887 34.5318C218.887 34.6154 218.845 35.2009 218.762 36.2882H201.742C202.048 37.6821 202.773 38.7833 203.916 39.5918C205.059 40.4003 206.481 40.8045 208.182 40.8045C209.352 40.8045 210.384 40.6373 211.276 40.3027C212.196 39.9403 213.046 39.3827 213.827 38.63L217.298 42.3936C215.179 44.8191 212.085 46.0318 208.014 46.0318C205.477 46.0318 203.233 45.5439 201.282 44.5682C199.33 43.5645 197.825 42.1845 196.765 40.4282C195.706 38.6718 195.176 36.6785 195.176 34.4482C195.176 32.2457 195.692 30.2664 196.723 28.51C197.783 26.7257 199.218 25.3457 201.031 24.37C202.871 23.3664 204.92 22.8645 207.178 22.8645C209.38 22.8645 211.374 23.3385 213.158 24.2864C214.942 25.2342 216.336 26.6003 217.34 28.3845C218.371 30.1409 218.887 32.19 218.887 34.5318ZM207.22 27.7991C205.742 27.7991 204.502 28.2173 203.498 29.0536C202.494 29.89 201.881 31.033 201.658 32.4827H212.74C212.517 31.0609 211.903 29.9318 210.9 29.0954C209.896 28.2312 208.669 27.7991 207.22 27.7991Z" fill="#A21CAF"/>
<rect y="54.7129" width="230" height="29.6212" rx="14.8106" fill="#3B82F6"/>
<path d="M80.6588 66.1122C81.5828 66.1122 82.4108 66.3162 83.1428 66.7242C83.8748 67.1322 84.4448 67.7022 84.8528 68.4342C85.2728 69.1662 85.4828 70.0122 85.4828 70.9722C85.4828 71.9322 85.2728 72.7842 84.8528 73.5282C84.4448 74.2602 83.8748 74.8302 83.1428 75.2382C82.4108 75.6462 81.5828 75.8502 80.6588 75.8502C79.9508 75.8502 79.3028 75.7122 78.7148 75.4362C78.1268 75.1602 77.6408 74.7582 77.2568 74.2302V75.7422H75.6008V62.3862H77.3288V67.6422C77.7128 67.1382 78.1928 66.7602 78.7688 66.5082C79.3448 66.2442 79.9748 66.1122 80.6588 66.1122ZM80.5148 74.3382C81.1268 74.3382 81.6728 74.2002 82.1528 73.9242C82.6448 73.6362 83.0288 73.2402 83.3048 72.7362C83.5928 72.2202 83.7368 71.6322 83.7368 70.9722C83.7368 70.3122 83.5928 69.7302 83.3048 69.2262C83.0288 68.7102 82.6448 68.3142 82.1528 68.0382C81.6728 67.7622 81.1268 67.6242 80.5148 67.6242C79.9148 67.6242 79.3688 67.7622 78.8768 68.0382C78.3848 68.3142 78.0008 68.7102 77.7248 69.2262C77.4488 69.7302 77.3108 70.3122 77.3108 70.9722C77.3108 71.6322 77.4488 72.2202 77.7248 72.7362C78.0008 73.2402 78.3848 73.6362 78.8768 73.9242C79.3688 74.2002 79.9148 74.3382 80.5148 74.3382ZM96.0486 66.2022L91.4226 76.6962C91.0146 77.6682 90.5346 78.3522 89.9826 78.7482C89.4426 79.1442 88.7886 79.3422 88.0206 79.3422C87.5526 79.3422 87.0966 79.2642 86.6526 79.1082C86.2206 78.9642 85.8606 78.7482 85.5726 78.4602L86.3106 77.1642C86.8026 77.6322 87.3726 77.8662 88.0206 77.8662C88.4406 77.8662 88.7886 77.7522 89.0646 77.5242C89.3526 77.3082 89.6106 76.9302 89.8386 76.3902L90.1446 75.7242L85.9326 66.2022H87.7326L91.0626 73.8342L94.3566 66.2022H96.0486ZM114.081 75.7422L114.063 68.1822L110.355 74.4102H109.041L105.351 68.3442V75.7422H102.615V63.1422H105.027L109.743 70.9722L114.387 63.1422H116.781L116.817 75.7422H114.081ZM123.514 65.9142C125.014 65.9142 126.166 66.2742 126.97 66.9942C127.774 67.7022 128.176 68.7762 128.176 70.2162V75.7422H125.548V74.5362C125.02 75.4362 124.036 75.8862 122.596 75.8862C121.852 75.8862 121.204 75.7602 120.652 75.5082C120.112 75.2562 119.698 74.9082 119.41 74.4642C119.122 74.0202 118.978 73.5162 118.978 72.9522C118.978 72.0522 119.314 71.3442 119.986 70.8282C120.67 70.3122 121.72 70.0542 123.136 70.0542H125.368C125.368 69.4422 125.182 68.9742 124.81 68.6502C124.438 68.3142 123.88 68.1462 123.136 68.1462C122.62 68.1462 122.11 68.2302 121.606 68.3982C121.114 68.5542 120.694 68.7702 120.346 69.0462L119.338 67.0842C119.866 66.7122 120.496 66.4242 121.228 66.2202C121.972 66.0162 122.734 65.9142 123.514 65.9142ZM123.298 73.9962C123.778 73.9962 124.204 73.8882 124.576 73.6722C124.948 73.4442 125.212 73.1142 125.368 72.6822V71.6922H123.442C122.29 71.6922 121.714 72.0702 121.714 72.8262C121.714 73.1862 121.852 73.4742 122.128 73.6902C122.416 73.8942 122.806 73.9962 123.298 73.9962ZM134.876 71.9442L133.526 73.2762V75.7422H130.718V62.3862H133.526V69.9462L137.63 66.0582H140.978L136.946 70.1622L141.338 75.7422H137.936L134.876 71.9442ZM151.665 70.9362C151.665 70.9722 151.647 71.2242 151.611 71.6922H144.285C144.417 72.2922 144.729 72.7662 145.221 73.1142C145.713 73.4622 146.325 73.6362 147.057 73.6362C147.561 73.6362 148.005 73.5642 148.389 73.4202C148.785 73.2642 149.151 73.0242 149.487 72.7002L150.981 74.3202C150.069 75.3642 148.737 75.8862 146.985 75.8862C145.893 75.8862 144.927 75.6762 144.087 75.2562C143.247 74.8242 142.599 74.2302 142.143 73.4742C141.687 72.7182 141.459 71.8602 141.459 70.9002C141.459 69.9522 141.681 69.1002 142.125 68.3442C142.581 67.5762 143.199 66.9822 143.979 66.5622C144.771 66.1302 145.653 65.9142 146.625 65.9142C147.573 65.9142 148.431 66.1182 149.199 66.5262C149.967 66.9342 150.567 67.5222 150.999 68.2902C151.443 69.0462 151.665 69.9282 151.665 70.9362ZM146.643 68.0382C146.007 68.0382 145.473 68.2182 145.041 68.5782C144.609 68.9382 144.345 69.4302 144.249 70.0542H149.019C148.923 69.4422 148.659 68.9562 148.227 68.5962C147.795 68.2242 147.267 68.0382 146.643 68.0382ZM164.478 73.0962H162.426V75.7422H159.582V73.0962H152.796V71.1342L158.736 63.1422H161.796L156.288 70.7202H159.672V68.3622H162.426V70.7202H164.478V73.0962ZM172.348 75.9582C171.064 75.9582 169.9 75.6822 168.856 75.1302C167.824 74.5662 167.008 73.7922 166.408 72.8082C165.82 71.8122 165.526 70.6902 165.526 69.4422C165.526 68.1942 165.82 67.0782 166.408 66.0942C167.008 65.0982 167.824 64.3242 168.856 63.7722C169.9 63.2082 171.07 62.9262 172.366 62.9262C173.458 62.9262 174.442 63.1182 175.318 63.5022C176.206 63.8862 176.95 64.4382 177.55 65.1582L175.678 66.8862C174.826 65.9022 173.77 65.4102 172.51 65.4102C171.73 65.4102 171.034 65.5842 170.422 65.9322C169.81 66.2682 169.33 66.7422 168.982 67.3542C168.646 67.9662 168.478 68.6622 168.478 69.4422C168.478 70.2222 168.646 70.9182 168.982 71.5302C169.33 72.1422 169.81 72.6222 170.422 72.9702C171.034 73.3062 171.73 73.4742 172.51 73.4742C173.77 73.4742 174.826 72.9762 175.678 71.9802L177.55 73.7082C176.95 74.4402 176.206 74.9982 175.318 75.3822C174.43 75.7662 173.44 75.9582 172.348 75.9582ZM183.595 75.8862C182.575 75.8862 181.657 75.6762 180.841 75.2562C180.037 74.8242 179.407 74.2302 178.951 73.4742C178.495 72.7182 178.267 71.8602 178.267 70.9002C178.267 69.9402 178.495 69.0822 178.951 68.3262C179.407 67.5702 180.037 66.9822 180.841 66.5622C181.657 66.1302 182.575 65.9142 183.595 65.9142C184.615 65.9142 185.527 66.1302 186.331 66.5622C187.135 66.9822 187.765 67.5702 188.221 68.3262C188.677 69.0822 188.905 69.9402 188.905 70.9002C188.905 71.8602 188.677 72.7182 188.221 73.4742C187.765 74.2302 187.135 74.8242 186.331 75.2562C185.527 75.6762 184.615 75.8862 183.595 75.8862ZM183.595 73.5822C184.315 73.5822 184.903 73.3422 185.359 72.8622C185.827 72.3702 186.061 71.7162 186.061 70.9002C186.061 70.0842 185.827 69.4362 185.359 68.9562C184.903 68.4642 184.315 68.2182 183.595 68.2182C182.875 68.2182 182.281 68.4642 181.813 68.9562C181.345 69.4362 181.111 70.0842 181.111 70.9002C181.111 71.7162 181.345 72.3702 181.813 72.8622C182.281 73.3422 182.875 73.5822 183.595 73.5822ZM200.131 66.0582L196.045 75.7422H193.147L189.079 66.0582H191.977L194.659 72.6462L197.431 66.0582H200.131ZM201.276 66.0582H204.084V75.7422H201.276V66.0582ZM202.68 64.7082C202.164 64.7082 201.744 64.5582 201.42 64.2582C201.096 63.9582 200.934 63.5862 200.934 63.1422C200.934 62.6982 201.096 62.3262 201.42 62.0262C201.744 61.7262 202.164 61.5762 202.68 61.5762C203.196 61.5762 203.616 61.7202 203.94 62.0082C204.264 62.2962 204.426 62.6562 204.426 63.0882C204.426 63.5562 204.264 63.9462 203.94 64.2582C203.616 64.5582 203.196 64.7082 202.68 64.7082ZM216.554 62.3862V75.7422H213.872V74.6262C213.176 75.4662 212.168 75.8862 210.848 75.8862C209.936 75.8862 209.108 75.6822 208.364 75.2742C207.632 74.8662 207.056 74.2842 206.636 73.5282C206.216 72.7722 206.006 71.8962 206.006 70.9002C206.006 69.9042 206.216 69.0282 206.636 68.2722C207.056 67.5162 207.632 66.9342 208.364 66.5262C209.108 66.1182 209.936 65.9142 210.848 65.9142C212.084 65.9142 213.05 66.3042 213.746 67.0842V62.3862H216.554ZM211.334 73.5822C212.042 73.5822 212.63 73.3422 213.098 72.8622C213.566 72.3702 213.8 71.7162 213.8 70.9002C213.8 70.0842 213.566 69.4362 213.098 68.9562C212.63 68.4642 212.042 68.2182 211.334 68.2182C210.614 68.2182 210.02 68.4642 209.552 68.9562C209.084 69.4362 208.85 70.0842 208.85 70.9002C208.85 71.7162 209.084 72.3702 209.552 72.8622C210.02 73.3422 210.614 73.5822 211.334 73.5822Z" fill="white"/>
</svg>
