<svg width="24" height="24" viewBox="0 0 24 24" fill="none" xmlns="http://www.w3.org/2000/svg">
<path fill-rule="evenodd" clip-rule="evenodd" d="M5.94675 13.7714C6.18786 13.5304 6.51483 13.395 6.85575 13.395C7.19668 13.395 7.52364 13.5304 7.76475 13.7714L11.9986 18.0053L16.2325 13.7714C16.3511 13.6486 16.4929 13.5507 16.6498 13.4833C16.8067 13.4159 16.9754 13.3804 17.1461 13.379C17.3168 13.3775 17.4861 13.41 17.6441 13.4746C17.8021 13.5393 17.9457 13.6348 18.0664 13.7555C18.1871 13.8762 18.2826 14.0198 18.3472 14.1778C18.4119 14.3358 18.4444 14.5051 18.4429 14.6758C18.4414 14.8465 18.406 15.0152 18.3386 15.1721C18.2712 15.3289 18.1733 15.4708 18.0505 15.5894L12.9076 20.7323C12.6665 20.9733 12.3395 21.1087 11.9986 21.1087C11.6577 21.1087 11.3307 20.9733 11.0896 20.7323L5.94675 15.5894C5.70572 15.3483 5.57031 15.0213 5.57031 14.6804C5.57031 14.3395 5.70572 14.0125 5.94675 13.7714V13.7714Z" />
<path fill-rule="evenodd" clip-rule="evenodd" d="M18.0669 10.2149C17.8258 10.4559 17.4988 10.5913 17.1579 10.5913C16.817 10.5913 16.49 10.4559 16.2489 10.2149L12.0151 5.98105L7.78121 10.2149C7.6626 10.3377 7.52073 10.4357 7.36387 10.503C7.20701 10.5704 7.0383 10.6059 6.86758 10.6074C6.69686 10.6089 6.52756 10.5763 6.36955 10.5117C6.21154 10.447 6.06799 10.3516 5.94727 10.2308C5.82655 10.1101 5.73108 9.96657 5.66644 9.80856C5.60179 9.65056 5.56926 9.48125 5.57074 9.31054C5.57223 9.13982 5.60769 8.97111 5.67508 8.81425C5.74246 8.65738 5.84041 8.51551 5.96321 8.39691L11.1061 3.25405C11.3472 3.01302 11.6741 2.87761 12.0151 2.87761C12.356 2.87761 12.683 3.01302 12.9241 3.25405L18.0669 8.39691C18.308 8.63802 18.4434 8.96498 18.4434 9.30591C18.4434 9.64683 18.308 9.9738 18.0669 10.2149V10.2149Z" />
</svg>
