<svg width="24" height="24" viewBox="0 0 24 24" fill="none" xmlns="http://www.w3.org/2000/svg">
<path fill-rule="evenodd" clip-rule="evenodd" d="M3.92965 7.36124C4.25113 7.03986 4.68709 6.85932 5.14165 6.85932C5.59622 6.85932 6.03218 7.03986 6.35365 7.36124L11.9988 13.0064L17.6439 7.36124C17.8021 7.19751 17.9912 7.06691 18.2004 6.97707C18.4095 6.88722 18.6345 6.83993 18.8621 6.83796C19.0897 6.83598 19.3155 6.87935 19.5261 6.96555C19.7368 7.05174 19.9282 7.17903 20.0892 7.33999C20.2501 7.50095 20.3774 7.69236 20.4636 7.90303C20.5498 8.11371 20.5932 8.33945 20.5912 8.56707C20.5892 8.79469 20.542 9.01964 20.4521 9.22879C20.3623 9.43794 20.2317 9.6271 20.0679 9.78524L13.2108 16.6424C12.8893 16.9638 12.4534 17.1443 11.9988 17.1443C11.5442 17.1443 11.1083 16.9638 10.7868 16.6424L3.92965 9.78524C3.60828 9.46377 3.42773 9.02781 3.42773 8.57324C3.42773 8.11867 3.60828 7.68272 3.92965 7.36124V7.36124Z"/>
</svg>
