<svg width="173" height="268" viewBox="0 0 173 268" fill="none" xmlns="http://www.w3.org/2000/svg">
<circle r="2.90722" transform="matrix(-1 0 0 1 170.093 78.4878)" fill="#EF4444"/>
<circle r="2.90722" transform="matrix(-1 0 0 1 127.067 21.5026)" fill="#EF4444"/>
<circle r="2.90722" transform="matrix(-1 0 0 1 65.1915 2.90722)" fill="#A1A1AA"/>
<circle r="2.90722" transform="matrix(-1 0 0 1 120.09 245.943)" fill="#A1A1AA"/>
<circle r="2.90722" transform="matrix(-1 0 0 1 94.5093 221.521)" fill="#EF4444"/>
<circle r="1.70491" transform="matrix(-1 0 0 1 14.1082 152.872)" fill="#EF4444"/>
<circle r="1.70491" transform="matrix(-1 0 0 1 114.134 193.793)" fill="#EF4444"/>
<circle r="2.90722" transform="matrix(-1 0 0 1 24.2732 11.9974)" fill="#EF4444"/>
<circle r="2.90722" transform="matrix(-1 0 0 1 91.0178 243.62)" fill="#EF4444"/>
<circle r="2.90722" transform="matrix(-1 0 0 1 112.932 49.5061)" fill="#EF4444"/>
<circle r="2.90722" transform="matrix(-1 0 0 1 120.09 215.705)" fill="#A1A1AA"/>
<circle r="2.90722" transform="matrix(-1 0 0 1 85.204 264.55)" fill="#A1A1AA"/>
<circle r="2.90722" transform="matrix(-1 0 0 1 67.7593 183.147)" fill="#EF4444"/>
<circle r="2.90722" transform="matrix(-1 0 0 1 64.053 235.911)" fill="#EF4444"/>
<circle r="2.90722" transform="matrix(-1 0 0 1 35.1985 142.447)" fill="#EF4444"/>
<circle r="2.90722" transform="matrix(-1 0 0 1 60.8069 40.1161)" fill="#A1A1AA"/>
<circle r="2.90722" transform="matrix(-1 0 0 1 69.1674 78.8754)" fill="#A1A1AA"/>
<circle r="2.90722" transform="matrix(-1 0 0 1 55.0324 106.879)" fill="#EF4444"/>
<circle r="2.90722" transform="matrix(-1 0 0 1 2.90723 97.4889)" fill="#EF4444"/>
<circle r="2.90722" transform="matrix(-1 0 0 1 30.8139 179.656)" fill="#A1A1AA"/>
<circle r="1.70491" transform="matrix(-1 0 0 1 49.3457 166.51)" fill="#A1A1AA"/>
<circle r="2.90722" transform="matrix(-1 0 0 1 41.0125 220.359)" fill="#A1A1AA"/>
<circle r="3.40982" transform="matrix(-1 0 0 1 154.477 153.438)" fill="#EF4444"/>
<circle r="2.90722" transform="matrix(-1 0 0 1 137.932 175.67)" fill="#EF4444"/>
<circle r="2.90722" transform="matrix(-1 0 0 1 167.77 121.513)" fill="#A1A1AA"/>
<circle r="2.90722" transform="matrix(-1 0 0 1 145.674 195.94)" fill="#A1A1AA"/>
<circle r="2.90722" transform="matrix(-1 0 0 1 166.347 196.128)" fill="#A1A1AA"/>
<circle r="2.90722" transform="matrix(-1 0 0 1 145.889 123.382)" fill="#A1A1AA"/>
<circle r="2.90722" transform="matrix(-1 0 0 1 130.558 142.447)" fill="#A1A1AA"/>
<circle r="1.70491" transform="matrix(-1 0 0 1 109.583 129.005)" fill="#EF4444"/>
<circle r="4.54643" transform="matrix(-1 0 0 1 94.2418 75.0125)" fill="#EF4444"/>
<circle r="2.90722" transform="matrix(-1 0 0 1 108.459 99.4177)" fill="#A1A1AA"/>
<circle r="2.27322" transform="matrix(-1 0 0 1 73.7803 147.757)" fill="#EF4444"/>
<circle r="2.90722" transform="matrix(-1 0 0 1 101.48 151.749)" fill="#EF4444"/>
</svg>
