<svg width="17" height="18" viewBox="0 0 17 18" fill="none" xmlns="http://www.w3.org/2000/svg">
<path fill-rule="evenodd" clip-rule="evenodd" d="M16.0526 8.61837C16.0526 10.8715 15.2073 13.0323 13.7026 14.6255C12.1979 16.2187 10.1572 17.1137 8.02922 17.1137C5.90129 17.1137 3.86052 16.2187 2.35585 14.6255C0.851176 13.0323 0.00585938 10.8715 0.00585938 8.61837C0.00585938 6.36527 0.851176 4.20445 2.35585 2.61127C3.86052 1.01809 5.90129 0.123047 8.02922 0.123047C10.1572 0.123047 12.1979 1.01809 13.7026 2.61127C15.2073 4.20445 16.0526 6.36527 16.0526 8.61837V8.61837ZM5.02046 6.49454C5.02046 6.2129 5.12613 5.9428 5.31421 5.74365C5.50229 5.54451 5.75739 5.43263 6.02338 5.43263C6.28937 5.43263 6.54447 5.54451 6.73255 5.74365C6.92064 5.9428 7.0263 6.2129 7.0263 6.49454V10.7422C7.0263 11.0238 6.92064 11.2939 6.73255 11.4931C6.54447 11.6922 6.28937 11.8041 6.02338 11.8041C5.75739 11.8041 5.50229 11.6922 5.31421 11.4931C5.12613 11.2939 5.02046 11.0238 5.02046 10.7422V6.49454ZM10.0351 5.43263C9.76907 5.43263 9.51398 5.54451 9.32589 5.74365C9.13781 5.9428 9.03214 6.2129 9.03214 6.49454V10.7422C9.03214 11.0238 9.13781 11.2939 9.32589 11.4931C9.51398 11.6922 9.76907 11.8041 10.0351 11.8041C10.3011 11.8041 10.5562 11.6922 10.7442 11.4931C10.9323 11.2939 11.038 11.0238 11.038 10.7422V6.49454C11.038 6.2129 10.9323 5.9428 10.7442 5.74365C10.5562 5.54451 10.3011 5.43263 10.0351 5.43263Z" fill="#EF4444"/>
</svg>
